<svg xmlns="http://www.w3.org/2000/svg" viewBox="0 0 640 123.87">
  <g fill="#333">
  <path d="M679.67 407.38c-3.478-2.461-6.005-4.956-6.005-8.034h-19.338c0 5.54-2.527 8.034-5.645 8.034h-5.164v56.236h100.42V407.38h-64.63zm-6.006 16.067h-18.096v-8.034h20.084v6.465zm33.991 31.276c-11.457 0-20.779-9.202-20.779-20.513s9.322-20.04 20.78-20.04c11.456 0 20.777 8.728 20.777 20.04 0 11.311-9.32 20.513-20.778 20.513zm11.17-20.513c0 6.08-5.01 11.028-11.169 11.028-6.159 0-11.17-4.948-11.17-11.028 0-6.081 5.011-11.027 11.17-11.027s11.17 4.947 11.17 11.027zm77.334-34.48-25 63.735-19.185-7.693V444.91l13.323 5.452 17.592-44.844-65.92-25.205-6.11 19.034h-11l11.248-32.135 85.054 32.519z" transform="translate(-156.157 -367.215)"/>
  <g font-family="VomZom" font-size="23.686" word-spacing="0" letter-spacing="0">
  <path d="M164.38 467.99c4.011-.092 7.776 3.17 8.2 7.17.506 3.515-1.562 7.166-4.803 8.593-1.963.974-4.18.675-6.292.725h-2.063v6.609h-3.267c.007-5.1-.013-10.2.01-15.3.107-3.799 3.218-7.202 6.974-7.707.41-.061.827-.091 1.241-.09zm0 13.219c2.357.06 4.568-1.78 4.92-4.115.47-2.35-1.03-4.877-3.322-5.582-2.214-.785-4.878.249-5.959 2.34-.839 1.428-.541 3.117-.597 4.69v2.667h4.958zM174.16 467.91h3.23v16.488h-3.23V467.91zM187.1 478.32h.118l4.592 6.123h4.004l-6.241-8.478 5.534-8.008h-4.003l-3.886 5.653h-.118l-3.886-5.653h-4.004l5.535 8.008-6.241 8.478h4.004z" transform="matrix(4.12904 0 0 4.12904 -644.78 -1903.844)"/>
  <path d="M203.13 467.91c3.272-.065 6.411 2.08 7.622 5.106.632 1.405.624 2.963.603 4.472v6.91c-2.916-.01-5.833.02-8.748-.016-3.353-.164-6.418-2.608-7.378-5.815-.88-2.79-.149-6.028 1.922-8.11 1.547-1.6 3.745-2.568 5.979-2.547zm4.958 13.22c-.014-1.833.029-3.668-.024-5.5-.194-2.457-2.469-4.514-4.934-4.451-2.344-.057-4.553 1.761-4.92 4.082-.43 2.226.849 4.653 2.974 5.484 1.309.57 2.754.335 4.138.385h2.766zM221.19 467.99c3.87-.095 7.486 2.95 8.102 6.76.7 3.613-1.341 7.516-4.705 9.003-3.287 1.551-7.514.551-9.774-2.292-1.401-1.65-2.005-3.844-1.885-5.984V461.38h3.267v6.61h4.995zm0 13.219c2.482.066 4.75-2.017 4.933-4.487.31-2.454-1.508-4.922-3.937-5.368-1.344-.184-2.708-.06-4.06-.096h-1.93c.02 1.863-.045 3.729.037 5.589.26 2.46 2.485 4.41 4.957 4.362zM238.9 467.91c3.272-.065 6.411 2.08 7.622 5.106.632 1.405.624 2.963.603 4.472v6.91c-2.916-.01-5.833.02-8.748-.016-3.353-.164-6.418-2.608-7.378-5.815-.88-2.79-.149-6.028 1.922-8.11 1.547-1.6 3.746-2.568 5.979-2.547zm4.958 13.22c-.014-1.833.029-3.668-.024-5.5-.194-2.457-2.469-4.514-4.934-4.451-2.344-.057-4.553 1.761-4.92 4.082-.43 2.226.849 4.653 2.974 5.484 1.309.57 2.754.335 4.138.385h2.766zM265.11 467.95c-.007 5.088.013 10.176-.01 15.263-.119 4.004-3.56 7.603-7.577 7.812-.763.04-1.528.016-2.291.022v-3.267c1.394-.007 2.886.134 4.12-.655 1.543-.866 2.524-2.61 2.489-4.376-2.897 2.336-7.387 2.215-10.204-.196-2.052-1.657-3.174-4.322-3.015-6.945v-7.658h3.267c.015 2.911-.03 5.824.024 8.733.178 2.396 2.314 4.424 4.715 4.481 2.434.187 4.776-1.702 5.139-4.11.146-1.44.042-2.894.073-4.34v-4.764h3.27z" transform="matrix(4.12904 0 0 4.12904 -644.78 -1903.844)"/>
  </g>
  </g>
</svg>